<svg width="60" height="60" viewBox="0 0 60 60" fill="none" xmlns="http://www.w3.org/2000/svg">
<g id="Arch-proj" clip-path="url(#clip0_613_4)">
<path id="Papper" d="M11.1913 5.74978V6.09369M56.4842 19.5117H57.6561C58.7579 19.6161 59.1001 19.976 59.121 21.2695V53.9648C59.1069 55.3715 58.7366 55.7847 57.246 55.664L8.49595 55.8984C3.40639 55.1129 0.557254 51.2617 0.734356 47.5781M17.0506 19.5117H11.1913M11.1913 19.5117V38.1445C11.2969 40.1019 10.5834 40.504 8.49594 40.4882C3.3052 41.3307 0.887553 44.3916 0.734356 47.5781M11.1913 19.5117V6.09369M0.734356 47.5781C0.734356 47.5781 0.937363 17.5195 0.937363 11.7187C0.937363 5.91791 5.97643 4.1015 9.37486 4.51166C10.9569 4.7026 11.1913 5.27338 11.1913 6.09369M49.8631 19.5117H24.8436" stroke-width="1.8" stroke-linecap="round"/>
<path id="Ink" d="M19.5117 24.0979C19.9219 24.2151 20.332 24.0979 20.5664 23.8635C20.8008 23.6291 34.1503 8.68774 34.1503 8.68774M19.5117 24.0979L18.0762 22.8381M19.5117 24.0979L15.8203 25.3125L16.6406 21.5784M16.6406 21.5784C16.5234 20.9338 16.7578 21.051 16.9922 20.4065C17.2266 19.762 30.4102 5.40649 30.4102 5.40649M16.6406 21.5784L18.0762 22.8381M30.4102 5.40649C30.4102 5.40649 31.7578 3.94164 32.2495 3.4143C32.7412 2.88697 32.6952 2.94555 33.2227 3.4729C33.7501 4.00025 35.332 5.45776 35.7422 5.81665C36.1523 6.17553 36.1586 6.17936 35.8594 6.57836C35.5601 6.97737 34.1503 8.68774 34.1503 8.68774M30.4102 5.40649L32.2495 6.98852M34.1503 8.68774L32.2495 6.98852M32.2495 6.98852L18.0762 22.8381M56.25 50.3906C54.1323 50.3906 52.8119 50.3906 50.9224 50.3906C50.3701 50.3906 49.9219 49.9489 49.9219 49.3966C49.9219 34.7021 49.9219 13.5483 49.9219 8.78552C49.9219 8.23685 50.3633 7.80466 50.912 7.79958C51.9755 7.78973 53.7182 7.7736 55.2409 7.7595C55.7968 7.75435 56.25 8.20355 56.25 8.75945V45.3516M56.25 50.3906C56.25 48.3312 56.25 45.3516 56.25 45.3516M56.25 50.3906L53.9648 50.3906M53.9648 45.3516C54.8573 45.3516 55.3576 45.3516 56.25 45.3516M53.0273 39.7266H56.25M53.9648 34.2186H56.25M53.0273 28.5936H56.25M53.9648 23.0858H56.25M53.0273 17.4608H56.25M53.9648 11.953H56.25" stroke-width="1.8" stroke-linecap="round"/>
<path id="house" d="M31.875 50.0391H46.9297C47.482 50.0391 47.9297 49.5913 47.9297 49.0391V39.668M31.875 50.0391V39.668M31.875 50.0391H28.8281M47.9297 39.668H31.875M47.9297 39.668L45.5243 37.3672C45.3382 37.1892 45.0906 37.0898 44.8331 37.0898H43.7695M17.6367 39.668V49.0391C17.6367 49.5913 18.0844 50.0391 18.6367 50.0391H24.7559M17.6367 39.668H31.875M17.6367 39.668V32.3438M31.875 39.668V37.0898M17.6367 32.3438L23.6729 26.6782C24.0406 26.3331 24.6076 26.3158 24.9957 26.6377L31.875 32.3438M17.6367 32.3438H17.1156C16.2018 32.3438 15.7667 31.2193 16.4425 30.6042L24.3164 23.4375M31.875 32.3438H32.2237C33.137 32.3438 33.5723 31.2201 32.8974 30.6048L32.8125 30.5273M31.875 32.3438V37.0898M24.3164 23.4375L32.8125 30.5273M24.3164 23.4375H39.8911C40.1945 23.4375 40.4815 23.5753 40.6713 23.812L44.7516 28.9019C45.2764 29.5565 44.8104 30.5273 43.9714 30.5273H43.7695M31.875 37.0898H43.7695M43.7695 37.0898V30.5273M43.7695 30.5273H32.8125M24.7559 50.0391V44.5937C24.7559 44.0415 25.2036 43.5938 25.7559 43.5938H27.8281C28.3804 43.5938 28.8281 44.0415 28.8281 44.5938V50.0391M24.7559 50.0391H28.8281M23.4961 34.9844V36.2656C23.4961 36.8179 23.0484 37.2656 22.4961 37.2656H20.9805C20.4282 37.2656 19.9805 36.8179 19.9805 36.2656V34.9844C19.9805 34.4321 20.4282 33.9844 20.9805 33.9844H22.4961C23.0484 33.9844 23.4961 34.4321 23.4961 34.9844ZM28.4727 37.2656H26.957C26.4047 37.2656 25.957 36.8179 25.957 36.2656V34.9844C25.957 34.4321 26.4047 33.9844 26.957 33.9844H28.4727C29.0249 33.9844 29.4727 34.4321 29.4727 34.9844V36.2656C29.4727 36.8179 29.0249 37.2656 28.4727 37.2656ZM44.4102 46.875H42.1328C41.5805 46.875 41.1328 46.4273 41.1328 45.875V44.5938C41.1328 44.0415 41.5805 43.5938 42.1328 43.5938H44.4102C44.9624 43.5938 45.4102 44.0415 45.4102 44.5937V45.875C45.4102 46.4273 44.9624 46.875 44.4102 46.875ZM38.6133 44.5937V45.875C38.6133 46.4273 38.1656 46.875 37.6133 46.875H35.3359C34.7837 46.875 34.3359 46.4273 34.3359 45.875V44.5938C34.3359 44.0415 34.7837 43.5938 35.3359 43.5938H37.6133C38.1656 43.5938 38.6133 44.0415 38.6133 44.5937Z" stroke-width="1.8" stroke-linecap="round"/>
</g>
<defs>
<clipPath id="clip0_613_4">
<rect width="60" height="60" fill="white"/>
</clipPath>
</defs>
</svg>
