<svg width="62" height="58" viewBox="0 0 62 58" fill="none" xmlns="http://www.w3.org/2000/svg">
<path d="M12.2335 46.2035L19.6299 53.4119M12.2335 46.2035H19.5046C19.5738 46.2035 19.6299 46.2596 19.6299 46.3289V53.4119M12.2335 46.2035V25.7692M19.6299 53.4119H23.2655M45.1415 6.21242V53.2865C45.1415 53.3558 45.0853 53.4119 45.0161 53.4119H23.2655M45.1415 6.21242V3.83051C45.1415 3.76127 45.0853 3.70515 45.0161 3.70515H35.5511M45.1415 6.21242H49.7173C49.7865 6.21242 49.8426 6.26855 49.8426 6.33779V56.1699C49.8426 56.2392 49.7865 56.2953 49.7173 56.2953H23.3908C23.3216 56.2953 23.2655 56.2392 23.2655 56.1699V53.4119M36.0526 16.9937H41.7567M33.7334 20.9427H36.0526M38.1211 20.9427H41.7567M33.0439 24.9543H41.7567M28.5621 28.9033H36.0526M38.1211 28.9033H41.7567M28.5621 39.3085H41.0671M16.0571 39.3085H22.3096M16.0571 42.4426H28.5621M41.0671 42.4426H31.6884M54.2304 14.5491V29.3125C54.2304 29.3319 54.2349 29.3511 54.2436 29.3685L56.4255 33.7324C56.4738 33.8289 56.6133 33.8234 56.6538 33.7234L58.4209 29.3647C58.4269 29.3497 58.43 29.3338 58.43 29.3176V14.5491M54.2304 14.5491V3.83051C54.2304 3.76127 54.2865 3.70515 54.3557 3.70515H58.3047C58.3739 3.70515 58.43 3.76127 58.43 3.83051V5.5856M54.2304 14.5491H58.43M58.43 14.5491V5.5856M58.43 5.5856H60.8746C60.9439 5.5856 61 5.64173 61 5.71097V15.1759M12.2335 4.77074V3.83051C12.2335 3.76127 12.2896 3.70515 12.3588 3.70515H29.2203M36.5541 15.8028L41.6684 10.75C41.7173 10.7017 41.7182 10.6231 41.6704 10.5737L32.4425 1.03818C32.394 0.988058 32.3139 0.987168 32.2643 1.0362L26.9637 6.2751M36.5541 15.8028L26.9637 6.2751M36.5541 15.8028L32.7305 21.2561M26.9637 6.2751L22.9826 8.76333C22.9626 8.77578 22.9396 8.78238 22.9161 8.78238H19.1285M32.7305 21.2561L24.9939 14.1434C24.9707 14.1221 24.9405 14.1103 24.909 14.1103H21.5904C21.5789 14.1103 21.5675 14.1119 21.5564 14.1151L19.1567 14.7919C19.1381 14.7971 19.121 14.8066 19.1067 14.8195L16.5897 17.091C16.5695 17.1092 16.5431 17.1205 16.516 17.1227C14.4305 17.2976 13.6891 16.6891 13.309 14.1773C13.3028 14.1361 13.3175 14.0935 13.3482 14.0654L19.1285 8.78238M32.7305 21.2561C33.4704 22.9323 32.7305 24.2648 31.1634 24.5155M19.1285 8.78238C18.0754 8.78238 15.472 7.61232 14.302 7.02729M14.302 7.02729L5.77723 15.4893M14.302 7.02729L9.50073 2.04139C9.45232 1.99111 9.37217 1.99006 9.32245 2.03904L1.03738 10.2014C0.989105 10.2489 0.987367 10.3263 1.03346 10.3759L5.77723 15.4893M5.77723 15.4893L8.47255 18.6234M8.47255 18.6234L7.03201 20.5442C6.9952 20.5932 6.99932 20.6618 7.04177 20.7061L9.36973 23.1365M8.47255 18.6234L9.58502 17.9436C9.5955 17.9372 9.60708 17.9323 9.61899 17.9293C11.0519 17.5672 12.1573 18.6756 12.6722 20.0651M17.6241 25.2677C19.2236 25.8761 19.8125 26.4616 20.1756 27.8292C20.1871 27.8728 20.174 27.9197 20.1414 27.951L17.0252 30.9474C16.9752 30.9955 16.8957 30.9938 16.8477 30.9438L14.473 28.4645M17.6241 25.2677C17.1706 23.9298 16.7579 23.363 15.1168 22.5724M17.6241 25.2677L14.473 28.4645M15.1168 22.5724C14.7209 21.2935 14.2631 20.6855 12.6722 20.0651M15.1168 22.5724C14.8948 22.7959 12.9761 24.6472 11.8574 25.7337M12.6722 20.0651L9.36973 23.1365M9.36973 23.1365L11.8574 25.7337M11.8574 25.7337L14.473 28.4645M19.6299 28.4645L23.1793 31.8893C23.1947 31.9042 23.2138 31.915 23.2346 31.9201C24.4172 32.2119 25.7179 31.4509 25.7728 29.6555M25.7728 29.6555L23.2028 27.0228M25.7728 29.6555C27.4966 29.489 28.0717 28.8743 28.5308 27.0228M28.5308 27.0228L25.7728 24.5155M28.5308 27.0228C30.2179 26.8583 30.6876 26.2508 31.1634 24.5155M31.1634 24.5155L28.5308 22.0083" stroke-width="1.8" stroke-linecap="round"/>
</svg>
