<svg width="62" height="53" viewBox="0 0 62 53" fill="none" xmlns="http://www.w3.org/2000/svg">
<g id="Interior">
<path id="sofa" d="M38.8059 51.241H44.9398C45.492 51.241 45.9398 50.7933 45.9398 50.241V37.3943C45.9398 37.1944 45.8818 36.9974 45.7611 36.8381C44.7607 35.5166 43.4468 34.9961 42.2048 35.0445M38.8059 51.241H8.13386M38.8059 51.241V42.6265M38.8059 42.6265V37.3453C38.8059 37.1762 38.8464 37.0084 38.9384 36.8666C39.6314 35.7981 40.8771 35.0962 42.2048 35.0445M38.8059 42.6265H21.5422M8.13386 42.6265V50.1846C8.13386 50.7333 7.69172 51.1796 7.14304 51.1846L2.00918 51.2317C1.45333 51.2368 1 50.7876 1 50.2317V37.0518C1 37.0323 1.00496 37.0131 1.01459 36.9959C1.71114 35.7586 3.12766 34.9549 4.61446 34.9763M8.13386 42.6265V37.0575C8.13386 37.0344 8.12657 37.0113 8.11339 36.9921C7.15153 35.5898 5.8584 34.9943 4.61446 34.9763M8.13386 42.6265H11.8434M4.61446 34.9763V29.9191C4.61446 29.7974 4.63673 29.6756 4.68131 29.5623C5.63468 27.1394 6.58888 26.4038 8.89157 26.1807H37.9277C40.2842 26.409 42.0241 28.1687 42.2048 29.7349V35.0445M11.8434 42.6265V39.5301C11.8434 38.9778 12.2911 38.5301 12.8434 38.5301H20.5422C21.0945 38.5301 21.5422 38.9778 21.5422 39.5301V42.6265M11.8434 42.6265H21.5422M25.5783 38.6506V41.6265C25.5783 42.1788 26.026 42.6265 26.5783 42.6265H34.2771C34.8294 42.6265 35.2771 42.1788 35.2771 41.6265V38.6506C35.2771 38.5841 35.2232 38.5301 35.1566 38.5301H25.6988C25.6323 38.5301 25.5783 38.5841 25.5783 38.6506Z" stroke-width="1.8" stroke-linecap="round"/>
<path id="light" d="M50.0364 47.0241V45.494C50.0364 44.9417 50.4841 44.494 51.0364 44.494H55.8436C56.3959 44.494 56.8436 44.9417 56.8436 45.494V47.0241M50.0364 47.0241V48.4337C50.0364 48.986 50.4841 49.4337 51.0364 49.4337H55.8436C56.3959 49.4337 56.8436 48.986 56.8436 48.4337V47.0241M50.0364 47.0241H56.8436M50.0364 42.4458H49.0484C48.4961 42.4458 48.0484 42.8935 48.0484 43.4458V50.4217C48.0484 50.974 48.4961 51.4217 49.0484 51.4217H57.8918C58.4441 51.4217 58.8918 50.974 58.8918 50.4217V43.4458C58.8918 42.8935 58.4441 42.4458 57.8918 42.4458H56.8436M50.0364 42.4458V41.5962C50.0364 41.1678 50.3093 40.7869 50.7151 40.6492L53.4099 39.7349M50.0364 42.4458H56.8436M56.8436 42.4458V41.6003C56.8436 41.1698 56.5682 40.7877 56.1598 40.6516L53.4099 39.7349M53.4099 39.7349V14.9759M53.4099 14.9759H47.0253C46.3794 14.9759 45.9029 14.3727 46.0525 13.7443L48.8896 1.82862C48.9968 1.37815 49.3993 1.06024 49.8624 1.06024H56.954C57.4186 1.06024 57.822 1.38022 57.9278 1.83261L60.7133 13.7483C60.8599 14.3756 60.3838 14.9759 59.7395 14.9759H53.4099ZM49.9761 15.2771V30.0964" stroke-width="1.8" stroke-linecap="round"/>
<path id="picture" d="M12.6867 4.43373V18.9518M12.6867 4.43373H34.4337M12.6867 4.43373L9.67468 1.60241M12.6867 18.9518L9.67468 21.8434M12.6867 18.9518H22.6265H34.4337M34.4337 18.9518V4.43373M34.4337 18.9518L36.8434 21.3012M34.4337 4.43373L36.8434 2.20482M23.4699 13.7108H20.3308C19.4886 13.7108 19.0236 12.7334 19.5549 12.08L22.5958 8.34009C22.8881 7.98061 23.4699 8.18729 23.4699 8.6506V8.6506M23.4699 13.7108H26.6702C27.5986 13.7108 28.0259 12.5558 27.321 11.9516L23.4699 8.6506M23.4699 13.7108V8.6506M23.4699 13.7108H19.9347C18.9503 13.7108 18.5991 15.0127 19.45 15.5078V15.5078C19.5971 15.5934 19.7644 15.6386 19.9347 15.6386H23.4699H27.0276C27.1835 15.6386 27.3372 15.6007 27.4753 15.5282V15.5282C28.367 15.0605 28.0345 13.7108 27.0276 13.7108H23.4699ZM36.8674 22.3855H10.0723C9.51998 22.3855 9.07227 21.9378 9.07227 21.3855V2C9.07227 1.44772 9.51998 1 10.0723 1H36.8674C37.4197 1 37.8674 1.44771 37.8674 2V21.3855C37.8674 21.9378 37.4197 22.3855 36.8674 22.3855Z"  stroke-width="1.8" stroke-linecap="round"/>
</g>
</svg>
