<svg width="60" height="60" viewBox="0 0 60 60" fill="none" xmlns="http://www.w3.org/2000/svg">
<g id="Urb-proj">
<g clip-path="url(#clip0_613_20)">
<path id="Papper" d="M11.1913 5.74978V6.09369M59.121 53.9648C58.8111 55.2538 58.7366 55.7847 57.246 55.664L50.9178 55.6944L45.9374 55.7184M59.121 53.9648V21.2695C59.1001 19.976 58.7579 19.6161 57.6561 19.5117H56.4842H50.9178M59.121 53.9648C58.6799 58.6515 52.3237 58.7204 46.937 58.7122C46.3847 58.7114 45.9374 58.2632 45.9374 57.7109V55.7184M43.1835 19.5117H11.1913M11.1913 19.5117V38.1445C11.2955 40.0749 10.6029 40.4927 8.58137 40.4886C8.52517 40.4885 8.46707 40.4928 8.41166 40.5021C3.27902 41.3639 0.886722 44.4089 0.734356 47.5781M11.1913 19.5117V6.09369M0.734356 47.5781C0.558171 51.2426 3.37698 55.0731 8.4171 55.8859C8.4691 55.8943 8.5224 55.8983 8.57507 55.898L45.9374 55.7184M0.734356 47.5781C0.734356 47.5781 0.937363 17.5195 0.937363 11.7187C0.937363 5.91791 5.97643 4.1015 9.37486 4.51166C10.9569 4.7026 11.1913 5.27338 11.1913 6.09369" stroke-width="1.8" stroke-linecap="round"/>
<path id="city" d="M18.1641 50.3906V48.6914M18.1641 48.6914H20.0708C20.7629 48.6914 21.1789 47.9235 20.8008 47.3438L20.3828 46.7028C20.1845 46.3988 20.4026 45.9961 20.7656 45.9961V45.9961C21.1422 45.9961 21.3572 45.5661 21.1312 45.2648L20.3834 44.2677C20.1932 44.0141 20.3741 43.6523 20.691 43.6523V43.6523C21.0418 43.6523 21.2094 43.2213 20.9509 42.9843L18.8398 41.0491C18.4575 40.6986 17.8707 40.6986 17.4883 41.0491L15.3772 42.9843C15.1187 43.2213 15.2864 43.6523 15.6371 43.6523V43.6523C15.954 43.6523 16.1349 44.0141 15.9448 44.2677L15.1969 45.2648C14.9709 45.5661 15.1859 45.9961 15.5625 45.9961V45.9961C15.9255 45.9961 16.1436 46.3988 15.9454 46.7028L15.5273 47.3437C15.1493 47.9235 15.5652 48.6914 16.2574 48.6914H18.1641ZM34.2188 50.3906V48.6914M34.2188 48.6914H37.518C37.6111 48.6914 37.667 48.5882 37.6162 48.5102L36.8088 47.2721C36.4508 46.7232 36.8447 45.9961 37.5 45.9961V45.9961C37.5966 45.9961 37.6517 45.8858 37.5938 45.8086L36.8505 44.8176C36.4904 44.3375 36.833 43.6523 37.4331 43.6523V43.6523C37.54 43.6523 37.5911 43.521 37.5123 43.4488L34.8945 41.0491C34.5122 40.6986 33.9253 40.6986 33.543 41.0491L30.9252 43.4488C30.8464 43.521 30.8975 43.6523 31.0044 43.6523V43.6523C31.6045 43.6523 31.9471 44.3375 31.587 44.8176L30.8437 45.8086C30.7858 45.8858 30.8409 45.9961 30.9375 45.9961V45.9961C31.5928 45.9961 31.9867 46.7232 31.6287 47.2721L30.8213 48.5102C30.7705 48.5882 30.8264 48.6914 30.9195 48.6914H34.2188ZM50.0391 50.3906V48.6914M50.0391 48.6914H53.3384C53.4314 48.6914 53.4873 48.5882 53.4365 48.5102L52.6291 47.2721C52.2711 46.7232 52.665 45.9961 53.3203 45.9961V45.9961C53.4169 45.9961 53.472 45.8858 53.4141 45.8086L52.6708 44.8176C52.3107 44.3375 52.6533 43.6523 53.2534 43.6523V43.6523C53.3603 43.6523 53.4114 43.521 53.3326 43.4488L50.7148 41.0491C50.3325 40.6986 49.7457 40.6986 49.3633 41.0491L46.7455 43.4488C46.6667 43.521 46.7178 43.6523 46.8247 43.6523V43.6523C47.4248 43.6523 47.7674 44.3375 47.4073 44.8176L46.6641 45.8086C46.6061 45.8858 46.6612 45.9961 46.7578 45.9961V45.9961C47.4132 45.9961 47.807 46.7232 47.449 47.2721L46.6416 48.5102C46.5908 48.5882 46.6467 48.6914 46.7398 48.6914H50.0391ZM27.0117 50.3906V34.8047M15.5273 37.793V30.8828C15.5273 30.3305 15.9751 29.8828 16.5273 29.8828H18.9219C19.4742 29.8828 19.9219 29.4351 19.9219 28.8828V27.6602C19.9219 27.1079 20.3696 26.6602 20.9219 26.6602H26.0117C26.564 26.6602 27.0117 27.1079 27.0117 27.6602V34.8047M27.0117 34.8047L33.5449 31.7578M40.0781 34.8047V50.3906M40.0781 34.8047V27.0773C40.0781 26.4405 40.6654 25.9659 41.288 26.0996L50.4794 28.0726C50.9403 28.1715 51.2695 28.5789 51.2695 29.0503V37.793M40.0781 34.8047L33.5449 31.7578M33.5449 31.7578V28.7109M22.3828 32.2266V34.2773C22.3828 34.3421 22.4353 34.3945 22.5 34.3945H24.7266C24.7913 34.3945 24.8438 34.3421 24.8438 34.2773V32.2266C24.8438 32.1618 24.7913 32.1094 24.7266 32.1094H22.5C22.4353 32.1094 22.3828 32.1618 22.3828 32.2266ZM22.3828 36.7969V38.8477C22.3828 38.9124 22.4353 38.9648 22.5 38.9648H24.7266C24.7913 38.9648 24.8438 38.9124 24.8438 38.8477V36.7969C24.8438 36.7322 24.7913 36.6797 24.7266 36.6797H22.5C22.4353 36.6797 22.3828 36.7322 22.3828 36.7969ZM20.1562 36.7969V38.8477C20.1562 38.9124 20.1038 38.9648 20.0391 38.9648H17.8125C17.7478 38.9648 17.6953 38.9124 17.6953 38.8477V36.7969C17.6953 36.7322 17.7478 36.6797 17.8125 36.6797H20.0391C20.1038 36.6797 20.1562 36.7322 20.1562 36.7969ZM22.3828 41.3672V43.418C22.3828 43.4827 22.4353 43.5352 22.5 43.5352H24.7266C24.7913 43.5352 24.8438 43.4827 24.8438 43.418V41.3672C24.8438 41.3025 24.7913 41.25 24.7266 41.25H22.5C22.4353 41.25 22.3828 41.3025 22.3828 41.3672ZM29.5312 36.9141V38.9648C29.5312 39.0296 29.5837 39.082 29.6484 39.082H31.875C31.9397 39.082 31.9922 39.0296 31.9922 38.9648V36.9141C31.9922 36.8493 31.9397 36.7969 31.875 36.7969H29.6484C29.5837 36.7969 29.5312 36.8493 29.5312 36.9141ZM46.7578 32.2266V34.2773C46.7578 34.3421 46.8103 34.3945 46.875 34.3945H49.1016C49.1663 34.3945 49.2188 34.3421 49.2188 34.2773V32.2266C49.2188 32.1618 49.1663 32.1094 49.1016 32.1094H46.875C46.8103 32.1094 46.7578 32.1618 46.7578 32.2266ZM44.5312 32.2266V34.2773C44.5312 34.3421 44.4788 34.3945 44.4141 34.3945H42.1875C42.1228 34.3945 42.0703 34.3421 42.0703 34.2773V32.2266C42.0703 32.1618 42.1228 32.1094 42.1875 32.1094H44.4141C44.4788 32.1094 44.5312 32.1618 44.5312 32.2266ZM46.7578 36.6797V38.7305C46.7578 38.7952 46.8103 38.8477 46.875 38.8477H49.1016C49.1663 38.8477 49.2188 38.7952 49.2188 38.7305V36.6797C49.2188 36.615 49.1663 36.5625 49.1016 36.5625H46.875C46.8103 36.5625 46.7578 36.615 46.7578 36.6797ZM44.5312 36.6797V38.7305C44.5312 38.7952 44.4788 38.8477 44.4141 38.8477H42.1875C42.1228 38.8477 42.0703 38.7952 42.0703 38.7305V36.6797C42.0703 36.615 42.1228 36.5625 42.1875 36.5625H44.4141C44.4788 36.5625 44.5312 36.615 44.5312 36.6797ZM44.5312 41.4844V43.5352C44.5312 43.5999 44.4788 43.6523 44.4141 43.6523H42.1875C42.1228 43.6523 42.0703 43.5999 42.0703 43.5352V41.4844C42.0703 41.4197 42.1228 41.3672 42.1875 41.3672H44.4141C44.4788 41.3672 44.5312 41.4197 44.5312 41.4844ZM42.3047 48.2812V50.332C42.3047 50.3968 42.3572 50.4492 42.4219 50.4492H44.6484C44.7132 50.4492 44.7656 50.3968 44.7656 50.332V48.2812C44.7656 48.2165 44.7132 45.8086 44.6484 45.8086H42.4219C42.3572 45.8086 42.3047 48.2165 42.3047 48.2812ZM20.1562 33.1094V33.3945C20.1562 33.9468 19.7085 34.3945 19.1563 34.3945H18.6953C18.143 34.3945 17.6953 33.9468 17.6953 33.3945V33.1094C17.6953 32.5571 18.143 32.1094 18.6953 32.1094H19.1562C19.7085 32.1094 20.1562 32.5571 20.1562 33.1094Z" stroke-width="1.8" stroke-linecap="round"/>
<path id="Ink" d="M50.332 25.8984C49.8633 25.8984 49.3945 25.8557 49.1601 25.6213C48.9258 25.387 35.5762 10.4456 35.5762 10.4456M50.332 25.8984L51.6504 24.5959M50.332 25.8984L53.9062 27.0703L53.0859 23.3362M53.0859 23.3362C53.2031 22.6916 53.0859 22.793 52.7344 22.1643C52.3828 21.5356 39.3164 7.1643 39.3164 7.1643M53.0859 23.3362L51.6504 24.5959M39.3164 7.1643C39.3164 7.1643 37.9687 5.69945 37.4771 5.17212C36.9854 4.64478 37.0313 4.70336 36.5039 5.23071C35.9765 5.75806 34.3945 7.21557 33.9844 7.57446C33.5742 7.93334 33.5679 7.93717 33.8672 8.33617C34.1664 8.73518 35.5762 10.4456 35.5762 10.4456M39.3164 7.1643L37.4771 8.74633M35.5762 10.4456L37.4771 8.74633M37.4771 8.74633L51.6504 24.5959" stroke-width="1.8" stroke-linecap="round"/>
</g>
</g>
<defs>
<clipPath id="clip0_613_20">
<rect width="60" height="60" rx="1" fill="white"/>
</clipPath>
</defs>
</svg>
